<?xml version="1.0" standalone="no"?>
<!DOCTYPE svg PUBLIC "-//W3C//DTD SVG 20010904//EN"
 "http://www.w3.org/TR/2001/REC-SVG-20010904/DTD/svg10.dtd">
<svg version="1.0" xmlns="http://www.w3.org/2000/svg"
 width="640.000000pt" height="640.000000pt" viewBox="0 0 640.000000 640.000000"
 preserveAspectRatio="xMidYMid meet">
<metadata>
Created by potrace 1.11, written by Peter Selinger 2001-2013
</metadata>
<g transform="translate(0.000000,640.000000) scale(0.100000,-0.100000)"
fill="#000000" stroke="none">
<path d="M2110 4650 c0 -999 -3 -1490 -10 -1490 -6 0 -43 9 -83 20 -176 49
-382 49 -572 0 -117 -30 -303 -126 -407 -211 -275 -222 -421 -550 -405 -908 7
-164 39 -290 112 -436 64 -131 126 -215 232 -316 209 -199 462 -299 758 -299
177 0 325 32 477 104 145 68 308 202 409 335 69 91 153 266 186 386 l28 100 3
1558 2 1557 23 -5 c12 -3 497 -84 1077 -180 580 -97 1063 -178 1073 -181 16
-5 17 -68 17 -1134 l0 -1128 -46 14 c-217 65 -484 60 -687 -13 -377 -135 -648
-450 -723 -839 -20 -104 -22 -299 -4 -394 28 -151 95 -315 183 -444 22 -33 80
-100 127 -147 429 -434 1129 -434 1561 0 156 157 249 328 305 561 17 71 18
193 21 2163 2 1148 0 2087 -4 2087 -5 0 -827 164 -1827 365 -1001 201 -1821
365 -1823 365 -2 0 -3 -670 -3 -1490z"/>
</g>
</svg>
